<svg id="Layer_1" data-name="Layer 1" xmlns="http://www.w3.org/2000/svg" xmlns:xlink="http://www.w3.org/1999/xlink" viewBox="0 0 32 32"><defs><style>.cls-1,.cls-2,.cls-3{fill:none;}.cls-1,.cls-2{clip-rule:evenodd;}.cls-2{clip-path:url(#clip-path);}.cls-4{fill:#45b86d;fill-rule:evenodd;}.cls-5{clip-path:url(#clip-path-2);}.cls-6{clip-path:url(#clip-path-3);}.cls-7{fill:#fff;}</style><clipPath id="clip-path"><polygon class="cls-1" points="1.04 31.01 30.96 31.01 30.96 1.08 1.04 1.08 1.04 31.01 1.04 31.01"/></clipPath><clipPath id="clip-path-2"><polygon class="cls-2" points="3.97 3.92 28.57 3.92 28.57 28.43 3.97 28.43 3.97 3.92 3.97 3.92"/></clipPath><clipPath id="clip-path-3"><polygon class="cls-3" points="3.97 28.43 28.57 28.43 28.57 3.92 3.97 3.92 3.97 28.43 3.97 28.43"/></clipPath></defs><path class="cls-4" d="M1,16A15,15,0,1,1,16,31,15,15,0,0,1,1,16Z"/><g class="cls-5"><g class="cls-6"><polygon class="cls-7" points="8.53 6.95 10.05 6.95 10.05 25.64 8.53 25.64 8.53 6.95 8.53 6.95"/><path class="cls-7" d="M23,7H11.06V25.64H23a1,1,0,0,0,1-1V8a1,1,0,0,0-1-1Zm-7.58,7.1A1.93,1.93,0,1,1,17.32,16a1.92,1.92,0,0,1-1.93-1.92Zm5.8,6.29H13.44V18.42a1,1,0,0,1,.38-.78,5.75,5.75,0,0,1,1.9-.91,6.83,6.83,0,0,1,1.6-.25,4.77,4.77,0,0,1,1.59.25,5.3,5.3,0,0,1,1.9.91,1,1,0,0,1,.38.78v1.92Z"/></g></g></svg>