<svg id="Layer_1" data-name="Layer 1" xmlns="http://www.w3.org/2000/svg" xmlns:xlink="http://www.w3.org/1999/xlink" viewBox="0 0 32 32"><defs><style>.cls-1,.cls-2,.cls-3{fill:none;}.cls-1,.cls-2{clip-rule:evenodd;}.cls-2{clip-path:url(#clip-path);}.cls-4{fill:#fff;}.cls-5{clip-path:url(#clip-path-2);}.cls-6{clip-path:url(#clip-path-3);}.cls-7{fill:#0b84c7;}</style><clipPath id="clip-path"><polygon class="cls-1" points="-3.23 35.23 35.23 35.23 35.23 -3.23 -3.23 -3.23 -3.23 35.23 -3.23 35.23"/></clipPath><clipPath id="clip-path-2"><polygon class="cls-2" points="-3.23 -3.23 35.23 -3.23 35.23 35.23 -3.23 35.23 -3.23 -3.23 -3.23 -3.23"/></clipPath><clipPath id="clip-path-3"><polygon class="cls-3" points="-3.23 35.23 35.23 35.23 35.23 -3.23 -3.23 -3.23 -3.23 35.23 -3.23 35.23"/></clipPath></defs><path class="cls-4" d="M1.25,16.21a15,15,0,1,1,15,14.92,14.94,14.94,0,0,1-15-14.92Z"/><g class="cls-5"><g class="cls-6"><path class="cls-7" d="M16.18,1.13A15.06,15.06,0,1,0,31.23,16.19a15,15,0,0,0-15-15.06Zm0,26.16a2,2,0,1,1,2-2,2,2,0,0,1-2,2Zm1.19-9.2v3.65H15V15.79h1.19c2.65,0,4.36-1.54,4.36-4a4.25,4.25,0,0,0-4.36-4.36,4,4,0,0,0-4.36,4.36H9.44a6.37,6.37,0,0,1,6.74-6.74,6.68,6.68,0,0,1,6.73,6.74,6.11,6.11,0,0,1-5.54,6.26Z"/></g></g></svg>