<svg id="Layer_1" data-name="Layer 1" xmlns="http://www.w3.org/2000/svg" xmlns:xlink="http://www.w3.org/1999/xlink" viewBox="0 0 32 32"><defs><style>.cls-1,.cls-2,.cls-3{fill:none;}.cls-1,.cls-2{clip-rule:evenodd;}.cls-2{clip-path:url(#clip-path);}.cls-4{fill:#90aad8;fill-rule:evenodd;}.cls-5{clip-path:url(#clip-path-2);}.cls-6{clip-path:url(#clip-path-3);}.cls-7{fill:#fff;}</style><clipPath id="clip-path"><polygon class="cls-1" points="1.04 30.73 30.96 30.73 30.96 0.8 1.04 0.8 1.04 30.73 1.04 30.73"/></clipPath><clipPath id="clip-path-2"><polygon class="cls-2" points="6.63 4.97 28.12 4.97 28.12 26.55 6.63 26.55 6.63 4.97 6.63 4.97"/></clipPath><clipPath id="clip-path-3"><polygon class="cls-3" points="6.63 26.55 28.12 26.55 28.12 4.97 6.63 4.97 6.63 26.55 6.63 26.55"/></clipPath></defs><path class="cls-4" d="M1,15.76a15,15,0,1,1,15,15,15,15,0,0,1-15-15Z"/><g class="cls-5"><g class="cls-6"><path class="cls-7" d="M26.91,12.53,20.58,7.2v3.11c-9.7.09-9.83,10-9.83,10s2.06-5.27,9.83-5.34v2.89l6.33-5.34Z"/><polygon class="cls-7" points="23.1 17.54 23.1 23.21 9.38 23.21 9.38 9.42 19.25 9.42 19.25 8.09 8.05 8.09 8.05 24.54 24.43 24.48 24.43 16.4 23.1 17.54 23.1 17.54"/></g></g></svg>