<svg id="Layer_1" data-name="Layer 1" xmlns="http://www.w3.org/2000/svg" viewBox="0 0 32 32"><defs><style>.cls-1{fill:#0b84c7;fill-rule:evenodd;}.cls-2{fill:none;stroke:#fff;stroke-linecap:round;stroke-linejoin:round;}</style></defs><path class="cls-1" d="M1,16A15,15,0,1,1,16,30.92,14.94,14.94,0,0,1,1,16Z"/><circle class="cls-2" cx="16" cy="16" r="10.04"/><path class="cls-2" d="M22.56,8.4a10.05,10.05,0,0,1-13.12,0"/><path class="cls-2" d="M9.44,23.6a10,10,0,0,1,13.12,0"/><path class="cls-2" d="M16,6c-2.53,2-4.24,5.75-4.24,10S13.47,24,16,26c2.53-2,4.24-5.75,4.24-10S18.53,8,16,6Z"/><line class="cls-2" x1="5.96" y1="16" x2="26.04" y2="16"/></svg>