<svg id="Layer_1" data-name="Layer 1" xmlns="http://www.w3.org/2000/svg" xmlns:xlink="http://www.w3.org/1999/xlink" viewBox="0 0 32 32"><defs><style>.cls-1,.cls-2,.cls-3{fill:none;}.cls-1,.cls-2{clip-rule:evenodd;}.cls-2{clip-path:url(#clip-path);}.cls-4{fill:#be9eca;fill-rule:evenodd;}.cls-5{clip-path:url(#clip-path-2);}.cls-6{clip-path:url(#clip-path-3);}.cls-7{fill:#fff;}</style><clipPath id="clip-path"><polygon class="cls-1" points="1.08 30.88 30.92 30.88 30.92 0.95 1.08 0.95 1.08 30.88 1.08 30.88"/></clipPath><clipPath id="clip-path-2"><polygon class="cls-2" points="3.39 3.79 27.55 3.79 27.55 27.86 3.39 27.86 3.39 3.79 3.39 3.79"/></clipPath><clipPath id="clip-path-3"><polygon class="cls-3" points="3.39 27.86 27.55 27.86 27.55 3.79 3.39 3.79 3.39 27.86 3.39 27.86"/></clipPath></defs><path class="cls-4" d="M.86,16A14.92,14.92,0,1,1,15.78,31,14.94,14.94,0,0,1,.86,16Z"/><g class="cls-5"><g class="cls-6"><path class="cls-7" d="M7.12,20.16h1v1h-1v-1Zm0-2h1v1h-1v-1Zm0-2h1v1h-1v-1Zm2,4h1v1h-1v-1Zm0-2h1v1h-1v-1Zm0-2h1v1h-1v-1ZM5.63,23.63H8.12V22.14h1v1.49H11.6V14.7h-6v8.93Z"/><path class="cls-7" d="M14.09,20.16h1v1h-1v-1Zm0-2h1v1h-1v-1Zm2,2h1v1h-1v-1Zm0-2h1v1h-1v-1Zm-3.49,5.46h2.49V22.14h1v1.49h2.48V16.69h-6v6.94Z"/><path class="cls-7" d="M24,11.48H23v-1h1v1Zm0,1.73H23v-1h1v1Zm0,2H23v-1h1v1Zm0,2H23v-1h1v1Zm0,2H23v-1h1v1Zm0,2H23v-1h1v1Zm-2-9.67h-1v-1h1v1Zm0,1.73h-1v-1h1v1Zm0,2h-1v-1h1v1Zm0,2h-1v-1h1v1Zm0,2h-1v-1h1v1Zm0,2h-1v-1h1v1ZM19.56,8.75V23.63h2.49V22.14h1v1.49h2.49V9.49l-6-.74Z"/><path class="cls-7" d="M12.59,11.73h1v1h-1v-1Zm0-2h1v1h-1v-1Zm-1,1h-1v-1h1v1Zm0,2h-1v-1h1v1Zm1,3h2.49V8.25h-6v5.46h3.48v2Z"/></g></g></svg>