<svg id="Layer_1" data-name="Layer 1" xmlns="http://www.w3.org/2000/svg" xmlns:xlink="http://www.w3.org/1999/xlink" viewBox="0 0 32 32"><defs><style>.cls-1,.cls-2,.cls-3{fill:none;}.cls-1,.cls-2{clip-rule:evenodd;}.cls-2{clip-path:url(#clip-path);}.cls-4{fill:#fbaf62;fill-rule:evenodd;}.cls-5{clip-path:url(#clip-path-2);}.cls-6{clip-path:url(#clip-path-3);}.cls-7{fill:#fff;}</style><clipPath id="clip-path"><polygon class="cls-1" points="1.08 30.96 30.92 30.96 30.92 1.04 1.08 1.04 1.08 30.96 1.08 30.96"/></clipPath><clipPath id="clip-path-2"><polygon class="cls-2" points="3.92 2.72 28.08 2.72 28.08 26.88 3.92 26.88 3.92 2.72 3.92 2.72"/></clipPath><clipPath id="clip-path-3"><polygon class="cls-3" points="3.92 26.88 28.08 26.88 28.08 2.72 3.92 2.72 3.92 26.88 3.92 26.88"/></clipPath></defs><path class="cls-4" d="M1.08,16A14.92,14.92,0,1,1,16,31,14.94,14.94,0,0,1,1.08,16Z"/><g class="cls-5"><g class="cls-6"><path class="cls-7" d="M25.57,20.89c0,.33-.38.63-1,.85v-.9a5.94,5.94,0,0,0,1-.39v.44Zm-2-1.64v-.89a6.21,6.21,0,0,0,1-.4v.45c0,.32-.37.62-1,.84Zm0,2.79c-.3.07-.65.12-1,.17v-1l1-.15V22Zm-2-3.29,1-.15v.95c-.3.07-.65.12-1,.17v-1Zm0,3.59c-.33,0-.65.05-1,.05v-1c.3,0,.65,0,1-.05v1Zm-2-2.44v-1c.29,0,.64,0,1,0v1c-.32,0-.65,0-1,0Zm0,2.49c-.35,0-.68,0-1-.05v-.95h1v1Zm-2-3.54c.33,0,.65,0,1,0v1c-.35,0-.67,0-1,0v-1Zm0,3.36c-.34-.05-.69-.1-1-.17v-.8c.32.05.65.08,1,.1v.87Zm-2-2.66v-1c.33.05.65.12,1,.15v1c-.35,0-.7-.1-1-.17Zm0,2.19c-.62-.25-1-.55-1-.85v-.05h0a.53.53,0,0,0,.2.05,6.18,6.18,0,0,0,.77.18v.67Zm-4-3.38.5,0v0a1.9,1.9,0,0,0,.25,1c-.25,0-.5,0-.75-.05v-1Zm-1-3c.32.05.65.12,1,.15v1c-.34-.05-.69-.1-1-.17v-1Zm0,3.86a9,9,0,0,1-1-.18v-1c.33.05.65.13,1,.15v1Zm-2-4.06v-.45a5.23,5.23,0,0,0,1,.37V16c-.62-.23-1-.53-1-.85Zm0,3.58c-.62-.25-1-.54-1-.84v-.45a5.33,5.33,0,0,0,1,.37v.92ZM7.65,11a5.33,5.33,0,0,0,1,.37v.92c-.62-.25-1-.55-1-.84V11Zm3,.79v1c-.35,0-.7-.1-1-.17v-1l1,.15Zm2.49-4.33c3,0,5.47.67,5.47,1.5s-2.44,1.49-5.47,1.49S7.65,9.77,7.65,9s2.44-1.5,5.48-1.5Zm1.49,11.8c-.62-.25-1-.55-1-.84V18a5.33,5.33,0,0,0,1,.37v.92Zm3-7v-.89a6,6,0,0,0,1-.4v.45c0,.32-.37.62-1,.84Zm-2,.47v-1l1-.15v.95a9,9,0,0,1-1,.17Zm-2,.18v-1c.3,0,.65,0,1,0v1c-.32,0-.65,0-1,0Zm-2,0v-1c.33,0,.65,0,1,0v1c-.35,0-.67,0-1,0Zm12.94,3c0,.82-2.44,1.49-5.47,1.49s-5.48-.67-5.48-1.49,2.44-1.5,5.48-1.5,5.47.67,5.47,1.5Zm1.49.74v-.74c0-1.17-.92-2-2.71-2.49A12.84,12.84,0,0,0,21,13a1.94,1.94,0,0,0,0-.35,2,2,0,0,0-1-1.74V9c0-1.17-.92-2-2.71-2.49A16.28,16.28,0,0,0,13.1,6c-2.09,0-7,.3-7,3v2.49a2,2,0,0,0,1,1.74v.47a2.1,2.1,0,0,0-1,1.77v2.49c0,1.17.92,2,2.71,2.49a16.66,16.66,0,0,0,4.25.49c0,1.17.92,2,2.71,2.49a16.28,16.28,0,0,0,4.26.5c2.09,0,7-.3,7-3V18.41a1.93,1.93,0,0,0-1-1.75Z"/></g></g></svg>