<svg id="Layer_1" data-name="Layer 1" xmlns="http://www.w3.org/2000/svg" xmlns:xlink="http://www.w3.org/1999/xlink" viewBox="0 0 32 32"><defs><style>.cls-1,.cls-2,.cls-3{fill:none;}.cls-1,.cls-2{clip-rule:evenodd;}.cls-2{clip-path:url(#clip-path);}.cls-4{fill:#fff;}.cls-5{clip-path:url(#clip-path-2);}.cls-6{clip-path:url(#clip-path-3);}.cls-7{fill:#0b84c7;}</style><clipPath id="clip-path"><polygon class="cls-1" points="-3.48 35.32 35.48 35.32 35.48 -3.73 -3.48 -3.73 -3.48 35.32 -3.48 35.32"/></clipPath><clipPath id="clip-path-2"><polygon class="cls-2" points="-3.48 -3.73 35.48 -3.73 35.48 35.32 -3.48 35.32 -3.48 -3.73 -3.48 -3.73"/></clipPath><clipPath id="clip-path-3"><polygon class="cls-3" points="-3.48 35.32 35.48 35.32 35.48 -3.73 -3.48 -3.73 -3.48 35.32 -3.48 35.32"/></clipPath></defs><path class="cls-4" d="M1,15.8A15,15,0,1,1,16,30.72,14.94,14.94,0,0,1,1,15.8Z"/><g class="cls-5"><g class="cls-6"><path class="cls-7" d="M16.18.7A15.28,15.28,0,1,0,31.41,16h0A15.25,15.25,0,0,0,16.19.7Zm7.46,16.64H17.53v6.13H14.82V17.34H8.71V14.62h6.11V8.49h2.71v6.13h6.11v2.72Z"/></g></g></svg>