<svg id="Layer_1" data-name="Layer 1" xmlns="http://www.w3.org/2000/svg" xmlns:xlink="http://www.w3.org/1999/xlink" viewBox="0 0 32 32"><defs><style>.cls-1,.cls-2,.cls-3{fill:none;}.cls-1,.cls-2{clip-rule:evenodd;}.cls-2{clip-path:url(#clip-path);}.cls-4{fill:#e77c7d;fill-rule:evenodd;}.cls-5{clip-path:url(#clip-path-2);}.cls-6{clip-path:url(#clip-path-3);}.cls-7{fill:#fff;}</style><clipPath id="clip-path"><polygon class="cls-1" points="1.3 30.96 31.14 30.96 31.14 1.04 1.3 1.04 1.3 30.96 1.3 30.96"/></clipPath><clipPath id="clip-path-2"><polygon class="cls-2" points="2.46 1.48 30.17 1.48 30.17 29.1 2.46 29.1 2.46 1.48 2.46 1.48"/></clipPath><clipPath id="clip-path-3"><polygon class="cls-3" points="2.46 29.1 30.17 29.1 30.17 1.48 2.46 1.48 2.46 29.1 2.46 29.1"/></clipPath></defs><path class="cls-4" d="M1.3,16A14.92,14.92,0,1,1,16.22,31,14.94,14.94,0,0,1,1.3,16Z"/><g class="cls-5"><g class="cls-6"><path class="cls-7" d="M9.31,7.46h3.14v1.7h8V7.46h3.14V25.1H9.31V7.46Zm7.16-2.28A.85.85,0,0,1,17.3,6a.86.86,0,1,1-.83-.85ZM7.59,6.89V25.67a1.15,1.15,0,0,0,1.15,1.14H24.15a1.15,1.15,0,0,0,1.14-1.14V6.89a1.15,1.15,0,0,0-1.14-1.14H19.29V5.18A1.14,1.14,0,0,0,18.15,4H14.73a1.14,1.14,0,0,0-1.14,1.14v.57H8.74A1.15,1.15,0,0,0,7.59,6.89Z"/><polygon class="cls-7" points="11.02 11.44 15.87 11.44 15.87 12.58 11.02 12.58 11.02 11.44 11.02 11.44"/><polygon class="cls-7" points="11.02 14.86 15.87 14.86 15.87 15.99 11.02 15.99 11.02 14.86 11.02 14.86"/><polygon class="cls-7" points="11.02 18.27 15.87 18.27 15.87 19.41 11.02 19.41 11.02 18.27 11.02 18.27"/><polygon class="cls-7" points="11.02 21.69 15.87 21.69 15.87 22.82 11.02 22.82 11.02 21.69 11.02 21.69"/><polygon class="cls-7" points="19.15 17.84 21.15 17.84 21.15 19.84 19.15 19.84 19.15 17.84 19.15 17.84"/><polygon class="cls-7" points="19.15 21.26 21.15 21.26 21.15 23.25 19.15 23.25 19.15 21.26 19.15 21.26"/><polygon class="cls-7" points="17.84 11.95 18.44 11.36 19.18 12.1 21.06 10.22 21.66 10.81 19.18 13.29 17.84 11.95 17.84 11.95"/><polygon class="cls-7" points="17.84 15.37 18.44 14.77 19.18 15.51 21.06 13.63 21.66 14.23 19.18 16.71 17.84 15.37 17.84 15.37"/></g></g></svg>