<svg id="Layer_1" data-name="Layer 1" xmlns="http://www.w3.org/2000/svg" xmlns:xlink="http://www.w3.org/1999/xlink" viewBox="0 0 32 32"><defs><style>.cls-1,.cls-2,.cls-3,.cls-4,.cls-6{fill:none;}.cls-1,.cls-5{fill-rule:evenodd;}.cls-2,.cls-3{clip-rule:evenodd;}.cls-3,.cls-7{clip-path:url(#clip-path);}.cls-5{fill:#0b84c7;}.cls-6{stroke:#0b84c7;stroke-miterlimit:8;}.cls-8{clip-path:url(#clip-path-3);}.cls-9{clip-path:url(#clip-path-4);}.cls-10{fill:#fff;}</style><clipPath id="clip-path"><polygon class="cls-2" points="1.88 30.23 30.57 30.23 30.57 1.54 1.88 1.54 1.88 30.23 1.88 30.23"/></clipPath><clipPath id="clip-path-3"><polygon class="cls-3" points="5.17 4.12 27.19 4.12 27.19 26.14 5.17 26.14 5.17 4.12 5.17 4.12"/></clipPath><clipPath id="clip-path-4"><polygon class="cls-4" points="5.17 26.14 27.19 26.14 27.19 4.12 5.17 4.12 5.17 26.14 5.17 26.14"/></clipPath></defs><path class="cls-5" d="M2.24,15.88a14,14,0,1,1,14,14,14,14,0,0,1-14-14Z"/><path class="cls-6" d="M2.24,15.88a14,14,0,1,1,14,14,14,14,0,0,1-14-14Z"/><g class="cls-7"><g class="cls-8"><g class="cls-9"><path class="cls-10" d="M19.91,11.15a3.63,3.63,0,1,1-3.63-3.63,3.62,3.62,0,0,1,3.63,3.63Z"/><path class="cls-10" d="M23.54,23V19.32a1.88,1.88,0,0,0-.73-1.45,9.69,9.69,0,0,0-3.53-1.72,10.14,10.14,0,0,0-3-.46,11.07,11.07,0,0,0-3,.46,11.54,11.54,0,0,0-3.54,1.72A1.91,1.91,0,0,0,9,19.32V23Z"/></g></g></g></svg>