<svg id="Layer_1" data-name="Layer 1" xmlns="http://www.w3.org/2000/svg" xmlns:xlink="http://www.w3.org/1999/xlink" viewBox="0 0 32 32"><defs><style>.cls-1,.cls-2,.cls-3{fill:none;}.cls-1,.cls-2{clip-rule:evenodd;}.cls-2{clip-path:url(#clip-path);}.cls-4{fill:#e1e443;fill-rule:evenodd;}.cls-5{clip-path:url(#clip-path-2);}.cls-6{clip-path:url(#clip-path-3);}.cls-7{fill:#fff;}</style><clipPath id="clip-path"><polygon class="cls-1" points="1.04 30.96 30.96 30.96 30.96 1.04 1.04 1.04 1.04 30.96 1.04 30.96"/></clipPath><clipPath id="clip-path-2"><polygon class="cls-2" points="2.72 1.75 29.63 1.75 29.63 28.57 2.72 28.57 2.72 1.75 2.72 1.75"/></clipPath><clipPath id="clip-path-3"><polygon class="cls-3" points="2.72 28.57 29.63 28.57 29.63 1.75 2.72 1.75 2.72 28.57 2.72 28.57"/></clipPath></defs><path class="cls-4" d="M1,16A15,15,0,1,1,16,31,15,15,0,0,1,1,16Z"/><g class="cls-5"><g class="cls-6"><path class="cls-7" d="M6.33,9.21a1.11,1.11,0,0,0-1.11,1.1V23.58a1.11,1.11,0,0,0,1.11,1.11H8.54V9.21Z"/><path class="cls-7" d="M26.28,9.21H24.06V24.69h2.22a1.11,1.11,0,0,0,1.11-1.11V10.31a1.11,1.11,0,0,0-1.11-1.1Z"/><path class="cls-7" d="M19.91,9.21V7.83A1.93,1.93,0,0,0,18,5.89H14.64A1.93,1.93,0,0,0,12.7,7.83V9.21h-3V24.69H23V9.21Zm-1.67,0H14.36V7.83a.26.26,0,0,1,.28-.28H18a.26.26,0,0,1,.27.28V9.21Z"/></g></g></svg>