<svg id="Layer_1" data-name="Layer 1" xmlns="http://www.w3.org/2000/svg" xmlns:xlink="http://www.w3.org/1999/xlink" viewBox="0 0 32 32"><defs><style>.cls-1,.cls-2,.cls-3{fill:none;}.cls-1,.cls-2{clip-rule:evenodd;}.cls-2{clip-path:url(#clip-path);}.cls-4{fill:#0b84c7;fill-rule:evenodd;}.cls-5{clip-path:url(#clip-path-2);}.cls-6{clip-path:url(#clip-path-3);}.cls-7{fill:#fff;}</style><clipPath id="clip-path"><polygon class="cls-1" points="1.04 30.92 30.96 30.92 30.96 1.08 1.04 1.08 1.04 30.92 1.04 30.92"/></clipPath><clipPath id="clip-path-2"><polygon class="cls-2" points="4.14 4.01 27.86 4.01 27.86 27.81 4.14 27.81 4.14 4.01 4.14 4.01"/></clipPath><clipPath id="clip-path-3"><polygon class="cls-3" points="4.14 27.81 27.86 27.81 27.86 4.01 4.14 4.01 4.14 27.81 4.14 27.81"/></clipPath></defs><path class="cls-4" d="M1,16A15,15,0,1,1,16,30.92,14.94,14.94,0,0,1,1,16Z"/><g class="cls-5"><g class="cls-6"><path class="cls-7" d="M16.11,19A2.94,2.94,0,1,1,19,16,2.94,2.94,0,0,1,16.11,19Zm6.59-4.78a6,6,0,0,0-.63-1.52l.61-1.84-1.39-1.4L19.46,10a6.84,6.84,0,0,0-1.54-.63l-.83-1.72h-2l-.85,1.72a6.17,6.17,0,0,0-1.52.63l-1.83-.61-1.39,1.4.61,1.84a6.65,6.65,0,0,0-.63,1.54l-1.71.84v2l1.71.86a6.17,6.17,0,0,0,.63,1.52l-.61,1.84,1.39,1.4L12.76,22a7.37,7.37,0,0,0,1.54.64l.86,1.72h1.95L18,22.65A6.53,6.53,0,0,0,19.48,22l1.83.62,1.39-1.4-.61-1.84a7.23,7.23,0,0,0,.64-1.55L24.44,17V15l-1.74-.83Z"/></g></g></svg>