<svg id="Layer_1" data-name="Layer 1" xmlns="http://www.w3.org/2000/svg" xmlns:xlink="http://www.w3.org/1999/xlink" viewBox="0 0 32 32"><defs><style>.cls-1,.cls-2,.cls-3{fill:none;}.cls-1,.cls-2{clip-rule:evenodd;}.cls-2{clip-path:url(#clip-path);}.cls-4{fill:#f6b2d0;fill-rule:evenodd;}.cls-5{clip-path:url(#clip-path-2);}.cls-6{clip-path:url(#clip-path-3);}.cls-7{fill:#fff;}</style><clipPath id="clip-path"><polygon class="cls-1" points="1.2 30.68 31.04 30.68 31.04 0.84 1.2 0.84 1.2 30.68 1.2 30.68"/></clipPath><clipPath id="clip-path-2"><polygon class="cls-2" points="4.13 5.02 27.22 5.02 27.22 28.11 4.13 28.11 4.13 5.02 4.13 5.02"/></clipPath><clipPath id="clip-path-3"><polygon class="cls-3" points="4.13 28.11 27.22 28.11 27.22 5.02 4.13 5.02 4.13 28.11 4.13 28.11"/></clipPath></defs><path class="cls-4" d="M1.2,15.76A14.92,14.92,0,1,1,16.12,30.68,14.92,14.92,0,0,1,1.2,15.76Z"/><g class="cls-5"><g class="cls-6"><polygon class="cls-7" points="9.13 8.35 7.7 8.35 7.7 25 24.11 25 24.11 23.58 9.13 23.58 9.13 8.35 9.13 8.35 9.13 8.35"/><polygon class="cls-7" points="24.11 22.15 20.54 22.15 20.54 8.35 24.11 8.35 24.11 22.15 24.11 22.15"/><polygon class="cls-7" points="19.11 22.15 15.55 22.15 15.55 13.11 19.11 13.11 19.11 22.15 19.11 22.15"/><polygon class="cls-7" points="14.12 22.15 10.55 22.15 10.55 17.39 14.12 17.39 14.12 22.15 14.12 22.15"/><polygon class="cls-7" points="18.16 11.62 18.16 8.35 14.9 8.35 16.19 9.65 10.46 15.39 11.13 16.06 16.86 10.32 18.16 11.62 18.16 11.62 18.16 11.62"/></g></g></svg>