<svg id="Layer_1" data-name="Layer 1" xmlns="http://www.w3.org/2000/svg" viewBox="0 0 32 32"><defs><style>.cls-1{fill:#ed2224;}.cls-2{fill:#fff;}</style></defs><path class="cls-1" d="M16,31.35h0A15.36,15.36,0,0,1,.65,16h0A15.36,15.36,0,0,1,16,.65h0A15.36,15.36,0,0,1,31.35,16h0A15.36,15.36,0,0,1,16,31.35Z"/><path class="cls-2" d="M25.77,11.06A2.57,2.57,0,0,0,24,9.25c-1.58-.43-8-.43-8-.43s-6.37,0-8,.43a2.54,2.54,0,0,0-1.8,1.81A26.64,26.64,0,0,0,5.81,16a26.64,26.64,0,0,0,.43,4.94A2.54,2.54,0,0,0,8,22.75c1.59.43,8,.43,8,.43s6.38,0,8-.43a2.54,2.54,0,0,0,1.8-1.81A26.64,26.64,0,0,0,26.19,16,27.26,27.26,0,0,0,25.77,11.06ZM13.92,19V13l5.32,3Z"/></svg>