<svg id="Layer_1" data-name="Layer 1" xmlns="http://www.w3.org/2000/svg" viewBox="0 0 32 32"><defs><style>.cls-1{fill:#439cd6;}.cls-2{fill:#fff;}.cls-3{fill:none;}</style></defs><g id="Dark_Blue" data-name="Dark Blue"><path class="cls-1" d="M16,.87h0A15.13,15.13,0,0,1,31.13,16h0A15.13,15.13,0,0,1,16,31.12h0A15.13,15.13,0,0,1,.87,16h0A15.13,15.13,0,0,1,16,.87Z"/></g><g id="Logo_FIXED" data-name="Logo FIXED"><path class="cls-2" d="M12.49,23.68a11,11,0,0,0,11-11c0-.17,0-.34,0-.5a7.85,7.85,0,0,0,1.93-2,7.7,7.7,0,0,1-2.22.61,3.91,3.91,0,0,0,1.7-2.15,7.74,7.74,0,0,1-2.46.94,3.88,3.88,0,0,0-6.61,3.54A11,11,0,0,1,7.87,9a3.88,3.88,0,0,0,1.2,5.18,3.84,3.84,0,0,1-1.76-.49v0a3.87,3.87,0,0,0,3.11,3.8,3.83,3.83,0,0,1-1.75.07,3.87,3.87,0,0,0,3.62,2.69A7.78,7.78,0,0,1,7.48,22a7.26,7.26,0,0,1-.93-.06,10.9,10.9,0,0,0,5.94,1.74"/><path class="cls-3" d="M16,.87h0A15.13,15.13,0,0,1,31.13,16h0A15.13,15.13,0,0,1,16,31.12h0A15.13,15.13,0,0,1,.87,16h0A15.13,15.13,0,0,1,16,.87Z"/></g></svg>