<svg id="Layer_1" data-name="Layer 1" xmlns="http://www.w3.org/2000/svg" xmlns:xlink="http://www.w3.org/1999/xlink" viewBox="0 0 32 32"><defs><style>.cls-1,.cls-2,.cls-3{fill:none;}.cls-1,.cls-2{clip-rule:evenodd;}.cls-2{clip-path:url(#clip-path);}.cls-4{fill:#e77c7d;fill-rule:evenodd;}.cls-5{clip-path:url(#clip-path-2);}.cls-6{clip-path:url(#clip-path-3);}.cls-7{fill:#fff;}</style><clipPath id="clip-path"><polygon class="cls-1" points="1.08 30.92 30.92 30.92 30.92 1.08 1.08 1.08 1.08 30.92 1.08 30.92"/></clipPath><clipPath id="clip-path-2"><polygon class="cls-2" points="1.79 2.15 29.23 2.15 29.23 29.59 1.79 29.59 1.79 2.15 1.79 2.15"/></clipPath><clipPath id="clip-path-3"><polygon class="cls-3" points="1.79 29.59 29.23 29.59 29.23 2.15 1.79 2.15 1.79 29.59 1.79 29.59"/></clipPath></defs><path class="cls-4" d="M1.08,16A14.92,14.92,0,1,1,16,30.92,14.92,14.92,0,0,1,1.08,16Z"/><g class="cls-5"><g class="cls-6"><path class="cls-7" d="M10.27,9.78a.84.84,0,0,0,.85-.85V7.24a.85.85,0,1,0-1.7,0V8.93a.84.84,0,0,0,.85.85Z"/><path class="cls-7" d="M7.73,14.87H23.55v9.05H7.73V14.87ZM6,25.62H25.25V13.17H6V25.62Z"/><path class="cls-7" d="M21,9.78a.84.84,0,0,0,.85-.85V7.24a.85.85,0,0,0-1.7,0V8.93a.84.84,0,0,0,.85.85Z"/><path class="cls-7" d="M23,8.08v.85a2,2,0,1,1-4,0V8.08H12.25v.85a2,2,0,0,1-4,0V8.08H6v4H25.25v-4Z"/></g></g></svg>