<svg id="Layer_1" data-name="Layer 1" xmlns="http://www.w3.org/2000/svg" xmlns:xlink="http://www.w3.org/1999/xlink" viewBox="0 0 32 32"><defs><style>.cls-1,.cls-2,.cls-3{fill:none;}.cls-1,.cls-2{clip-rule:evenodd;}.cls-2{clip-path:url(#clip-path);}.cls-4{fill:#fbaf62;fill-rule:evenodd;}.cls-5{clip-path:url(#clip-path-2);}.cls-6{clip-path:url(#clip-path-3);}.cls-7{fill:#fff;}</style><clipPath id="clip-path"><polygon class="cls-1" points="1.04 31.23 30.96 31.23 30.96 0.77 1.04 0.77 1.04 31.23 1.04 31.23"/></clipPath><clipPath id="clip-path-2"><polygon class="cls-2" points="1.92 3.43 29.72 3.43 29.72 31.23 1.92 31.23 1.92 3.43 1.92 3.43"/></clipPath><clipPath id="clip-path-3"><polygon class="cls-3" points="1.92 31.23 29.72 31.23 29.72 3.43 1.92 3.43 1.92 31.23 1.92 31.23"/></clipPath></defs><path class="cls-4" d="M1,15.73a15,15,0,1,1,15,15,15,15,0,0,1-15-15Z"/><g class="cls-5"><g class="cls-6"><polygon class="cls-7" points="25.68 7.73 6.22 7.73 14.81 16.32 14.81 24.92 14.81 27.21 17.1 24.92 17.1 16.32 25.68 7.73 25.68 7.73"/></g></g></svg>