<svg id="Layer_1" data-name="Layer 1" xmlns="http://www.w3.org/2000/svg" xmlns:xlink="http://www.w3.org/1999/xlink" viewBox="0 0 32 32"><defs><style>.cls-1,.cls-2,.cls-3{fill:none;}.cls-1,.cls-2{clip-rule:evenodd;}.cls-2{clip-path:url(#clip-path);}.cls-4{fill:#0b84c7;fill-rule:evenodd;}.cls-5{clip-path:url(#clip-path-2);}.cls-6{clip-path:url(#clip-path-3);}.cls-7{fill:#fff;}</style><clipPath id="clip-path"><polygon class="cls-1" points="1.75 30.25 30.25 30.25 30.25 1.75 1.75 1.75 1.75 30.25 1.75 30.25"/></clipPath><clipPath id="clip-path-2"><polygon class="cls-2" points="3.52 1.83 28.92 1.83 28.92 27.23 3.52 27.23 3.52 1.83 3.52 1.83"/></clipPath><clipPath id="clip-path-3"><polygon class="cls-3" points="3.52 27.23 28.92 27.23 28.92 1.83 3.52 1.83 3.52 27.23 3.52 27.23"/></clipPath></defs><path class="cls-4" d="M1.75,16A14.25,14.25,0,1,1,16,30.25,14.25,14.25,0,0,1,1.75,16Z"/><g class="cls-5"><g class="cls-6"><path class="cls-7" d="M25,21.25c-1.47-.74-3.68-2.61-3.89-9.58a4.23,4.23,0,0,0-3-4.14,1.87,1.87,0,1,0-3.6,0,4.23,4.23,0,0,0-3,4.14c-.21,7-2.42,8.84-3.89,9.58a.52.52,0,0,0,0,1h6.67a2,2,0,0,0,3.92,0H25a.52.52,0,0,0,.05-1ZM15.52,7a.82.82,0,0,1,1.64,0,.67.67,0,0,1,0,.24,5,5,0,0,0-.78-.09h0a6.65,6.65,0,0,0-.78.09.67.67,0,0,1,0-.24Z"/></g></g></svg>