<svg id="Layer_1" data-name="Layer 1" xmlns="http://www.w3.org/2000/svg" viewBox="0 0 32 32"><defs><style>.cls-1{fill:#fff;}.cls-2{fill:#0b84c7;fill-rule:evenodd;}</style></defs><path class="cls-1" d="M1,16.38A15,15,0,1,1,16,31.3,14.94,14.94,0,0,1,1,16.38Z"/><path class="cls-2" d="M16,1.37a15,15,0,1,1-15,15A15,15,0,0,1,16,1.37ZM16,7c-2.55,0-2.87,0-3.87.06a6.84,6.84,0,0,0-2.28.43,4.76,4.76,0,0,0-2.74,2.75,7,7,0,0,0-.44,2.27c0,1,0,1.32,0,3.87s0,2.87,0,3.87a7.07,7.07,0,0,0,.44,2.28,4.57,4.57,0,0,0,1.08,1.66,4.66,4.66,0,0,0,1.66,1.08,7.07,7.07,0,0,0,2.28.44c1,0,1.32.06,3.87.06s2.87,0,3.87-.06a7.07,7.07,0,0,0,2.28-.44,4.66,4.66,0,0,0,1.66-1.08,4.57,4.57,0,0,0,1.08-1.66,7.07,7.07,0,0,0,.44-2.28c0-1,.05-1.32.05-3.87s0-2.87-.05-3.87a7,7,0,0,0-.44-2.27,4.76,4.76,0,0,0-2.74-2.75,6.84,6.84,0,0,0-2.28-.43C18.87,7,18.55,7,16,7Zm0,1.69c2.51,0,2.8,0,3.79.05a5.27,5.27,0,0,1,1.74.33,3.08,3.08,0,0,1,1.78,1.78,5.07,5.07,0,0,1,.33,1.74c0,1,.05,1.29.05,3.79s0,2.8-.05,3.79a5.09,5.09,0,0,1-.33,1.75,3,3,0,0,1-.7,1.08,3,3,0,0,1-1.08.7,5.08,5.08,0,0,1-1.74.32c-1,.05-1.28.05-3.79.05s-2.8,0-3.79-.05a5.08,5.08,0,0,1-1.74-.32A3,3,0,0,1,9.39,23a3,3,0,0,1-.7-1.08,5.09,5.09,0,0,1-.33-1.75c0-1,0-1.28,0-3.79s0-2.8,0-3.79a5.07,5.07,0,0,1,.33-1.74,3.08,3.08,0,0,1,1.78-1.78,5.27,5.27,0,0,1,1.74-.33C13.2,8.7,13.49,8.69,16,8.69Zm0,2.87a4.82,4.82,0,1,0,4.82,4.82A4.82,4.82,0,0,0,16,11.56Zm0,8a3.13,3.13,0,1,1,3.13-3.13A3.13,3.13,0,0,1,16,19.51Zm6.13-8.14A1.13,1.13,0,1,1,21,10.25,1.12,1.12,0,0,1,22.13,11.37Z"/></svg>