<svg id="Layer_1" data-name="Layer 1" xmlns="http://www.w3.org/2000/svg" viewBox="0 0 32 32"><defs><style>.cls-1{fill:#0b84c7;}.cls-2{fill:#fff;}</style></defs><g id="layer1"><path id="rect3758-1" class="cls-1" d="M15.82,1.24h0A15.14,15.14,0,0,1,31,16.38h0A15.14,15.14,0,0,1,15.82,31.53h0A15.14,15.14,0,0,1,.68,16.38h0A15.14,15.14,0,0,1,15.82,1.24Z"/><path id="rect2989-1" class="cls-2" d="M18.22,4.87c-4.1,0-5.46,1.89-5.46,5.12v2.56H10.07v3.83h2.69V27.89h5V16.38h3.38l.45-3.83H17.74V10.26c0-1,.22-1.55,1.82-1.55h2V4.87Z"/></g></svg>